#!OML:ASF H:\MichaelJackson\Top Level 1\Subject 1\Session 1\male.ASF
:FULLY-SPECIFIED
:DEGREES
272
root 8.31186 16.2114 -25.2153 21.291 68.9986 18.9252
lowerback 6.53475 -4.31081 -2.54787
upperback 1.39452 -5.92099 -1.98478
thorax -2.16229 -2.92246 -0.136337
lowerneck -5.24378 -11.2068 -4.71269
upperneck 0.639408 -14.7954 5.34902
head 1.89718 -7.30987 1.91899
rclavicle -3.7356e-014 -2.93207e-015
rhumerus -53.8197 3.05688 -95.4644
rradius 42.9545
rwrist 25.5179
rhand -19.5387 -1.21687
rfingers 7.12502
rthumb 6.78518 -751.088
lclavicle -3.7356e-014 -2.93207e-015
lhumerus -44.6981 -35.2704 106.923
lradius 59.0775
lwrist 20.0684
lhand 18.8196 14.526
lfingers 7.12502
lthumb 43.4339 38.6168
rfemur -53.5456 -6.70017 13.2511
rtibia 87.3804
rfoot 8.55958 -1.43965
rtoes 2.91807
lfemur -24.4032 7.17404 -22.9157
ltibia 40.031
lfoot -5.06744 -21.0988
ltoes 65.5096
273
root 8.37489 16.1786 -25.1715 22.1398 69.92 20.1441
lowerback 6.64142 -4.45719 -2.62742
upperback 1.55634 -6.11698 -2.05645
thorax -2.05138 -3.02007 -0.150032
lowerneck -5.10397 -11.2605 -4.78472
upperneck 0.640157 -14.874 5.49624
head 1.89709 -7.34906 1.98006
rclavicle 3.74445e-014 1.13618e-014
rhumerus -54.5351 3.57056 -96.3508
rradius 44.5197
rwrist 24.49
rhand -22.4508 1.21931
rfingers 7.12502
rthumb 3.97343 -748.723
lclavicle 3.74445e-014 1.13618e-014
lhumerus -44.6221 -35.4023 106.763
lradius 59.0777
lwrist 20.1788
lhand 19.3236 14.7781
lfingers 7.12502
lthumb 43.9045 38.6965
rfemur -54.2541 -6.08349 13.9488
rtibia 85.0913
rfoot 7.93935 -1.17859
rtoes 2.09714
lfemur -24.212 7.03263 -23.0068
ltibia 40.8952
lfoot -5.53562 -21.855
ltoes 64.8167
274
root 8.4395 16.1423 -25.1255 23.0313 70.8426 21.4534
lowerback 6.738 -4.61229 -2.71573
upperback 1.7394 -6.3233 -2.13178
thorax -1.91208 -3.12316 -0.164029
lowerneck -4.98008 -11.3206 -4.84023
upperneck 0.669695 -14.9622 5.62359
head 1.90668 -7.39287 2.03008
rclavicle 3.07285e-014 1.19908e-014
rhumerus -55.2369 3.9752 -97.0583
rradius 46.1277
rwrist 23.439
rhand -24.7442 3.49961
rfingers 7.12502
rthumb 1.75858 -746.473
lclavicle 3.07285e-014 1.19908e-014
lhumerus -44.5846 -35.6402 106.647
lradius 59.1166
lwrist 20.3141
lhand 19.7519 15.0959
lfingers 7.12502
lthumb 44.3039 38.8645
rfemur -54.677 -5.40979 14.4999
rtibia 82.6074
rfoot 7.37167 -0.590177
rtoes 1.37596
lfemur -23.9806 6.96001 -23.0939
ltibia 41.8329
lfoot -6.34822 -22.6063
ltoes 63.6522
275
root 8.50587 16.1027 -25.0776 23.9848 71.7662 22.8829
lowerback 6.82874 -4.77287 -2.81772
upperback 1.94667 -6.5358 -2.2129
thorax -1.74338 -3.22966 -0.178181
lowerneck -4.86193 -11.3897 -4.89033
upperneck 0.72084 -15.0632 5.74267
head 1.92405 -7.44301 2.07502
rclavicle 1.19982e-013 -2.53575e-014
rhumerus -55.9384 4.30607 -97.6155
rradius 47.8004
rwrist 22.4771
rhand -26.441 5.37327
rfingers 7.12502
rthumb 0.119771 -744.606
lclavicle 1.19982e-013 -2.53575e-014
lhumerus -44.5741 -35.9871 106.569
lradius 59.1909
lwrist 20.4586
lhand 20.0595 15.4518
lfingers 7.12502
lthumb 44.5905 39.1108
rfemur -54.8209 -4.70962 14.9205
rtibia 79.9988
rfoot 6.92222 0.209255
rtoes 0.955449
lfemur -23.683 6.91467 -23.1699
ltibia 42.8089
lfoot -7.50558 -23.2995
ltoes 61.8353
276
root 8.57412 16.0601 -25.0279 25.0427 72.6855 24.4824
lowerback 6.91636 -4.93509 -2.94295
upperback 2.17862 -6.74987 -2.30354
thorax -1.54557 -3.33726 -0.191475
lowerneck -4.73765 -11.4691 -4.94624
upperneck 0.786297 -15.1789 5.86538
head 1.94697 -7.50047 2.12116
rclavicle 2.16924e-014 5.24295e-015
rhumerus -56.6521 4.59695 -98.0533
rradius 49.5478
rwrist 21.6799
rhand -27.6164 6.65705
rfingers 7.12502
rthumb -1.01538 -743.32
lclavicle 2.16924e-014 5.24295e-015
lhumerus -44.578 -36.4384 106.52
lradius 59.2945
lwrist 20.5897
lhand 20.2041 15.807
lfingers 7.12502
lthumb 44.7252 39.414
rfemur -54.7022 -4.01157 15.2285
rtibia 77.3332
rfoot 6.67696 1.07117
rtoes 1.00242
lfemur -23.2988 6.85556 -23.2314
ltibia 43.7871
lfoot -8.94895 -23.8897
ltoes 59.1681
277
root 8.64422 16.0149 -24.9767 26.2516 73.5891 26.3014
lowerback 7.00255 -5.09403 -3.10382
upperback 2.43359 -6.95962 -2.40621
thorax -1.32002 -3.44307 -0.200211
lowerneck -4.59736 -11.5592 -5.01658
upperneck 0.861117 -15.31 5.99933
head 1.97371 -7.56568 2.17296
rclavicle -1.31012e-014 -3.18055e-015
rhumerus -57.3881 4.88105 -98.4017
rradius 51.3667
rwrist 21.0695
rhand -28.3662 7.27687
rfingers 7.12502
rthumb -1.73963 -742.696
lclavicle -1.31012e-014 -3.18055e-015
lhumerus -44.5836 -36.9807 106.49
lradius 59.4215
lwrist 20.6773
lhand 20.1556 16.1148
lfingers 7.12502
lthumb 44.68 39.7393
rfemur -54.3415 -3.33646 15.4473
rtibia 74.6702
rfoot 6.72344 1.83277
rtoes 1.56624
lfemur -22.8143 6.74853 -23.272
ltibia 44.7356
lfoot -10.5199 -24.3758
ltoes 55.614
278
root 8.71601 15.9677 -24.9239 27.6663 74.4599 28.3928
lowerback 7.0872 -5.24478 -3.31325
upperback 2.70735 -7.15926 -2.52399
thorax -1.06963 -3.54432 -0.201003
lowerneck -4.4345 -11.6592 -5.10644
upperneck 0.944283 -15.4553 6.14758
head 2.00361 -7.63824 2.23269
rclavicle -7.64079e-016 -4.67144e-015
rhumerus -58.1537 5.19049 -98.6916
rradius 53.2414
rwrist 20.6122
rhand -28.7836 7.26938
rfingers 7.12502
rthumb -2.14267 -742.7
lclavicle -7.64079e-016 -4.67144e-015
lhumerus -44.5801 -37.5922 106.463
lradius 59.566
lwrist 20.6879
lhand 19.9046 16.3298
lfingers 7.12502
lthumb 44.4462 40.0443
rfemur -53.7626 -2.70083 15.6001
rtibia 72.0582
rfoot 7.12431 2.32802
rtoes 2.71139
lfemur -22.2267 6.58093 -23.2924
ltibia 45.6317
lfoot -12.0238 -24.8077
ltoes 51.45
279
root 8.78922 15.9191 -24.8697 29.3161 75.2795 30.7785
lowerback 7.16964 -5.38261 -3.57734
upperback 2.99353 -7.34284 -2.65725
thorax -0.799589 -3.63823 -0.191284
lowerneck -4.24561 -11.7667 -5.21719
upperneck 1.03809 -15.6122 6.30839
head 2.0368 -7.71692 2.30039
rclavicle 4.89259e-014 3.42904e-014
rhumerus -58.9559 5.55672 -98.953
rradius 55.1493
rwrist 20.2355
rhand -28.9508 6.74397
rfingers 7.12502
rthumb -2.30419 -743.223
lclavicle 4.89259e-014 3.42904e-014
lhumerus -44.5559 -38.2448 106.422
lradius 59.7197
lwrist 20.5884
lhand 19.4662 16.416
lfingers 7.12502
lthumb 44.0374 40.2849
rfemur -52.9889 -2.11718 15.7192
rtibia 69.5327
rfoot 7.89246 2.40946
rtoes 4.43533
lfemur -21.5436 6.36371 -23.2917
ltibia 46.4655
lfoot -13.294 -25.269
ltoes 47.3741
280
root 8.86347 15.8698 -24.8143 31.1991 76.0318 33.4453
lowerback 7.24877 -5.50381 -3.89303
upperback 3.28442 -7.50534 -2.80526
thorax -0.51729 -3.72249 -0.172135
lowerneck -4.03309 -11.8794 -5.34512
upperneck 1.15013 -15.7777 6.4741
head 2.07508 -7.8003 2.37287
rclavicle 1.24253e-013 1.47101e-014
rhumerus -59.8009 6.00786 -99.2147
rradius 57.0661
rwrist 19.8539
rhand -28.942 5.83736
rfingers 7.12502
rthumb -2.29569 -744.13
lclavicle 1.24253e-013 1.47101e-014
lhumerus -44.5014 -38.9079 106.349
lradius 59.8738
lwrist 20.3507
lhand 18.8782 16.3551
lfingers 7.12502
lthumb 43.4886 40.4261
rfemur -52.0431 -1.59784 15.8411
rtibia 67.1191
rfoot 8.97713 1.95063
rtoes 6.77967
lfemur -20.7818 6.12636 -23.2691
ltibia 47.2402
lfoot -14.2184 -25.8421
ltoes 44.3556
